<svg xmlns="http://www.w3.org/2000/svg" width="20" height="20" viewBox="0 0 20 20"><defs><style>.a{opacity:0;}.b{fill:#fff;}</style></defs><g transform="translate(0.059 0.059)"><rect class="a" width="20" height="20" transform="translate(-0.059 -0.059)"/><path class="b" d="M6.966,4.866l-1.01-1.01A7.364,7.364,0,0,0,3.045,9.4H4.458A5.966,5.966,0,0,1,6.966,4.866ZM15.718,9.4h1.413a7.409,7.409,0,0,0-2.91-5.545l-1,1.01a6,6,0,0,1,2.5,4.535Zm-1.392.353A4.3,4.3,0,0,0,11.148,5.29V4.81a1.06,1.06,0,1,0-2.119,0v.48A4.292,4.292,0,0,0,5.849,9.755v3.532L4.437,14.7v.706h11.3V14.7l-1.413-1.413Zm-4.239,7.771a1.238,1.238,0,0,0,.283-.028,1.433,1.433,0,0,0,1.017-.834,1.418,1.418,0,0,0,.106-.551H8.668A1.423,1.423,0,0,0,10.088,17.525Z" transform="translate(0.086 -0.799)"/></g></svg>
